# xmcd
#
# Track frame offsets: 
#        150
#        16650
#        34695
#        60720
#        102735
#        120009
#        138792
#        156999
#        178189
#        208802
#        216673
#        243988
#        268715
#
# Disc length: 3992 seconds
#
# Revision: 0
# Processed by: cddbd v1.5.2PL0 Copyright (c) Steve Scherf et al.
# Submitted via: ExactAudioCopy v1.3
#
DISCID=ba0f960d
DTITLE=Barrelhouse - Barrelhouse Live - As Long As It Is, It's Not Wha
DTITLE=t It Will Have Been
DYEAR=2004
DGENRE=Modern Electric Blues
TTITLE0=Three Times A Fool
TTITLE1=Skin And Bones
TTITLE2=Sally Go Round The Roses
TTITLE3=If You Really Wanna Leave
TTITLE4=The Other Side
TTITLE5=Coming Home No More
TTITLE6=I'm Torn Down
TTITLE7=Can't Believe
TTITLE8=Hard Time Killing Floor
TTITLE9=Straight To The Airport
TTITLE10=I Feel Like Breaking Up Somebody's Home Tonight
TTITLE11=Tell Me More
TTITLE12=Let Me Love You
EXTD=
EXTT0=
EXTT1=
EXTT2=
EXTT3=
EXTT4=
EXTT5=
EXTT6=
EXTT7=
EXTT8=
EXTT9=
EXTT10=
EXTT11=
EXTT12=
PLAYORDER=
